<?xml version="1.0" encoding="utf-8"?>
<!-- Generator: Adobe Illustrator 16.0.0, SVG Export Plug-In . SVG Version: 6.00 Build 0)  -->
<!DOCTYPE svg PUBLIC "-//W3C//DTD SVG 1.1//EN" "http://www.w3.org/Graphics/SVG/1.1/DTD/svg11.dtd">
<svg version="1.1" id="Layer_1" xmlns="http://www.w3.org/2000/svg" xmlns:xlink="http://www.w3.org/1999/xlink" x="0px" y="0px"
	 width="25px" height="25px" viewBox="0 0 25 25" enable-background="new 0 0 25 25" xml:space="preserve">
<path fill="#FFFFFF" d="M12.5,0C5.596,0,0,5.596,0,12.5C0,19.403,5.596,25,12.5,25C19.404,25,25,19.403,25,12.5
	C25,5.596,19.404,0,12.5,0z M13.672,22.499v-4.01h-2.344v4.01c-4.697-0.544-8.407-4.318-8.852-9.046h3.817V11.11H2.528
	c0.625-4.521,4.248-8.083,8.8-8.61v3.576h2.344V2.5c4.552,0.527,8.176,4.089,8.8,8.61h-3.765v2.343h3.816
	C22.078,18.181,18.368,21.955,13.672,22.499z"/>
</svg>
