<?xml version="1.0" encoding="utf-8"?>
<!-- Generator: Adobe Illustrator 16.0.0, SVG Export Plug-In . SVG Version: 6.00 Build 0)  -->
<!DOCTYPE svg PUBLIC "-//W3C//DTD SVG 1.1//EN" "http://www.w3.org/Graphics/SVG/1.1/DTD/svg11.dtd">
<svg version="1.1" id="Layer_1" xmlns="http://www.w3.org/2000/svg" xmlns:xlink="http://www.w3.org/1999/xlink" x="0px" y="0px"
	 width="25px" height="25px" viewBox="0 0 25 25" enable-background="new 0 0 25 25" xml:space="preserve">
<path fill="#FFFFFF" d="M24.467,21.734l-5.875-6.172c1.003-1.572,1.588-3.439,1.588-5.444C20.18,4.53,15.662,0,10.09,0
	C4.517,0,0,4.53,0,10.118c0,5.587,4.517,10.118,10.09,10.118c2.179,0,4.194-0.695,5.844-1.873l5.748,6.039
	c0.734,0.771,1.953,0.8,2.723,0.063C25.173,23.73,25.201,22.507,24.467,21.734z M3.098,10.118c0-3.873,3.13-7.012,6.992-7.012
	c3.861,0,6.991,3.139,6.991,7.012c0,3.872-3.13,7.012-6.991,7.012C6.228,17.13,3.098,13.99,3.098,10.118z"/>
</svg>
